<svg viewBox="0 0 1600 1010" xmlns="http://www.w3.org/2000/svg" font-family="'PingFang SC','Noto Sans SC','Microsoft YaHei',sans-serif">
  <defs>
    <linearGradient id="bg" x1="0" y1="0" x2="0" y2="1">
      <stop offset="0" stop-color="#0B0B16"/>
      <stop offset="1" stop-color="#15172E"/>
    </linearGradient>
    <linearGradient id="logo" x1="0" y1="0" x2="1" y2="1">
      <stop offset="0" stop-color="#7C3AED"/>
      <stop offset="1" stop-color="#2DD4BF"/>
    </linearGradient>
    <linearGradient id="accent" x1="0" y1="0" x2="1" y2="0">
      <stop offset="0" stop-color="#8B5CF6"/>
      <stop offset="0.5" stop-color="#EC4899"/>
      <stop offset="0.75" stop-color="#2DD4BF"/>
      <stop offset="1" stop-color="#F5B942"/>
    </linearGradient>
    <linearGradient id="aiband" x1="0" y1="0" x2="1" y2="0">
      <stop offset="0" stop-color="#8B5CF6"/>
      <stop offset="0.55" stop-color="#EC4899"/>
      <stop offset="1" stop-color="#2DD4BF"/>
    </linearGradient>
    <radialGradient id="glow" cx="0.5" cy="0" r="0.8">
      <stop offset="0" stop-color="#7C3AED" stop-opacity="0.30"/>
      <stop offset="1" stop-color="#7C3AED" stop-opacity="0"/>
    </radialGradient>
    <filter id="shadow" x="-20%" y="-20%" width="140%" height="140%">
      <feDropShadow dx="0" dy="7" stdDeviation="16" flood-color="#000000" flood-opacity="0.45"/>
    </filter>
    <marker id="arr" viewBox="0 0 10 10" refX="8" refY="5" markerWidth="7" markerHeight="7" orient="auto-start-reverse">
      <path d="M0,0 L10,5 L0,10 z" fill="#7A7BB4"/>
    </marker>
  </defs>

  <rect width="1600" height="1010" fill="url(#bg)"/>
  <rect width="1600" height="420" fill="url(#glow)"/>

  <!-- Header -->
  <rect x="64" y="40" width="44" height="44" rx="12" fill="url(#logo)"/>
  <text x="124" y="66" font-size="40" font-weight="800" fill="#F6F7FF">AI 全栈研发工作流</text>
  <text x="126" y="100" font-size="19" fill="#A7A8C6">卡密兑换平台 · 从一份需求到真实上线的完整闭环（G0 → G7）</text>
  <rect x="126" y="112" width="430" height="3" rx="1.5" fill="url(#accent)"/>
  <rect x="1276" y="48" width="260" height="40" rx="20" fill="#10231C" stroke="#2DD4BF" stroke-opacity="0.5"/>
  <circle cx="1304" cy="68" r="6" fill="#2DD4BF"/>
  <text x="1320" y="74" font-size="16" font-weight="700" fill="#7BEFD8">全流程 G0 → G7 已通过</text>
  <rect x="430" y="126" width="740" height="34" rx="17" fill="#191A2E" stroke="#2E2F50"/>
  <text x="800" y="148" font-size="14.5" fill="#C7C8E2" text-anchor="middle">贯穿全程 ·  阶段门禁  |  人工裁决  |  双 AI 审查  |  证据留痕  |  上下文纪律</text>

  <!-- ===== ROW A : G0 - G3 ===== -->
  <line x1="410" y1="269" x2="460" y2="269" stroke="#7A7BB4" stroke-width="2.5" marker-end="url(#arr)"/>
  <line x1="774" y1="269" x2="824" y2="269" stroke="#7A7BB4" stroke-width="2.5" marker-end="url(#arr)"/>
  <line x1="1138" y1="269" x2="1188" y2="269" stroke="#7A7BB4" stroke-width="2.5" marker-end="url(#arr)"/>

  <g transform="translate(98,185)" filter="url(#shadow)">
    <rect width="312" height="168" rx="16" fill="#191A2E" stroke="#2E2F50"/>
    <rect width="6" height="168" rx="3" fill="#8B5CF6"/>
    <rect x="18" y="16" width="52" height="26" rx="13" fill="#8B5CF6"/>
    <text x="44" y="34" font-size="15" font-weight="800" fill="#fff" text-anchor="middle">G0</text>
    <text x="84" y="35" font-size="15" font-weight="600" fill="#5EEAD4" font-family="'SF Mono',ui-monospace,monospace">/wz:init</text>
    <text x="20" y="72" font-size="18.5" font-weight="700" fill="#F4F5FC">初始化与脚手架</text>
    <text x="20" y="98" font-size="12.5" fill="#A7A8C6">git 检测 · 目录脚手架 · 环境检查</text>
    <text x="20" y="118" font-size="12.5" fill="#A7A8C6">产物：repo-profile / init-report</text>
    <rect x="18" y="130" width="120" height="26" rx="13" fill="#8B5CF6" fill-opacity="0.16"/>
    <text x="78" y="147" font-size="12" font-weight="700" fill="#C4B5FD" text-anchor="middle">Gate 通过 ✓</text>
  </g>

  <g transform="translate(462,185)" filter="url(#shadow)">
    <rect width="312" height="168" rx="16" fill="#191A2E" stroke="#2E2F50"/>
    <rect width="6" height="168" rx="3" fill="#8B5CF6"/>
    <rect x="18" y="16" width="52" height="26" rx="13" fill="#8B5CF6"/>
    <text x="44" y="34" font-size="15" font-weight="800" fill="#fff" text-anchor="middle">G1</text>
    <text x="84" y="35" font-size="15" font-weight="600" fill="#5EEAD4" font-family="'SF Mono',ui-monospace,monospace">/wz:prd</text>
    <text x="20" y="72" font-size="18.5" font-weight="700" fill="#F4F5FC">需求规格化</text>
    <text x="20" y="98" font-size="12.5" fill="#A7A8C6">PRD → 需求编 ID（FR / NFR / UX / SEC）</text>
    <text x="20" y="118" font-size="12.5" fill="#A7A8C6">5 项关键决策交人工裁决</text>
    <rect x="18" y="130" width="128" height="26" rx="13" fill="#EC4899" fill-opacity="0.16"/>
    <text x="82" y="147" font-size="12" font-weight="700" fill="#F9A8D4" text-anchor="middle">★ 人工卡点</text>
  </g>

  <g transform="translate(826,185)" filter="url(#shadow)">
    <rect width="312" height="168" rx="16" fill="#191A2E" stroke="#2E2F50"/>
    <rect width="6" height="168" rx="3" fill="#8B5CF6"/>
    <rect x="18" y="16" width="52" height="26" rx="13" fill="#8B5CF6"/>
    <text x="44" y="34" font-size="15" font-weight="800" fill="#fff" text-anchor="middle">G2</text>
    <text x="84" y="35" font-size="15" font-weight="600" fill="#5EEAD4" font-family="'SF Mono',ui-monospace,monospace">/wz:design</text>
    <text x="20" y="72" font-size="18.5" font-weight="700" fill="#F4F5FC">设计与契约冻结</text>
    <text x="20" y="98" font-size="12.5" fill="#A7A8C6">深色高保真原型 · DynamoDB 架构</text>
    <text x="20" y="118" font-size="12.5" fill="#A7A8C6">OpenAPI 契约冻结，前后端并行</text>
    <rect x="18" y="130" width="128" height="26" rx="13" fill="#2DD4BF" fill-opacity="0.16"/>
    <text x="82" y="147" font-size="12" font-weight="700" fill="#7BEFD8" text-anchor="middle">契约 FROZEN</text>
  </g>

  <g transform="translate(1190,185)" filter="url(#shadow)">
    <rect width="312" height="168" rx="16" fill="#191A2E" stroke="#2E2F50"/>
    <rect width="6" height="168" rx="3" fill="#8B5CF6"/>
    <rect x="18" y="16" width="52" height="26" rx="13" fill="#8B5CF6"/>
    <text x="44" y="34" font-size="15" font-weight="800" fill="#fff" text-anchor="middle">G3</text>
    <text x="84" y="35" font-size="15" font-weight="600" fill="#5EEAD4" font-family="'SF Mono',ui-monospace,monospace">/wz:plan</text>
    <text x="20" y="72" font-size="18.5" font-weight="700" fill="#F4F5FC">任务编排</text>
    <text x="20" y="98" font-size="12.5" fill="#A7A8C6">切 6 个 Feature · 拆 36 个 Task</text>
    <text x="20" y="118" font-size="12.5" fill="#A7A8C6">每任务 ≤30min · 依赖图 · 并行/串行</text>
    <rect x="18" y="130" width="120" height="26" rx="13" fill="#8B5CF6" fill-opacity="0.16"/>
    <text x="78" y="147" font-size="12" font-weight="700" fill="#C4B5FD" text-anchor="middle">36 Tasks</text>
  </g>

  <!-- U-turn G3 -> G4 -->
  <path d="M1502,269 H1545 Q1562,269 1562,286 V502 Q1562,519 1545,519 H1502" fill="none" stroke="#7A7BB4" stroke-width="2.5" marker-end="url(#arr)"/>

  <!-- ===== ROW B : G4 - G7 (right -> left) ===== -->
  <line x1="1190" y1="519" x2="1140" y2="519" stroke="#7A7BB4" stroke-width="2.5" marker-end="url(#arr)"/>
  <line x1="826" y1="519" x2="776" y2="519" stroke="#7A7BB4" stroke-width="2.5" marker-end="url(#arr)"/>
  <line x1="462" y1="519" x2="412" y2="519" stroke="#7A7BB4" stroke-width="2.5" marker-end="url(#arr)"/>

  <!-- G4 (double-AI core) -->
  <g transform="translate(1190,435)" filter="url(#shadow)">
    <rect width="312" height="168" rx="16" fill="#191A2E" stroke="#EC4899" stroke-opacity="0.55"/>
    <rect width="6" height="168" rx="3" fill="#EC4899"/>
    <rect x="18" y="16" width="52" height="26" rx="13" fill="#EC4899"/>
    <text x="44" y="34" font-size="15" font-weight="800" fill="#fff" text-anchor="middle">G4</text>
    <text x="84" y="35" font-size="15" font-weight="600" fill="#5EEAD4" font-family="'SF Mono',ui-monospace,monospace">/wz:ai</text>
    <text x="20" y="72" font-size="18.5" font-weight="700" fill="#F4F5FC">多 Agent 实现</text>
    <text x="20" y="98" font-size="12.5" fill="#A7A8C6">N0–N7 节点逐任务 · 实现 + 自审</text>
    <text x="20" y="118" font-size="12.5" fill="#A7A8C6">第二个 AI 独立审查每个变更</text>
    <rect x="18" y="130" width="150" height="26" rx="13" fill="#EC4899" fill-opacity="0.2"/>
    <text x="93" y="147" font-size="12" font-weight="700" fill="#F9A8D4" text-anchor="middle">★ 双 AI · 守护</text>
  </g>

  <!-- G5 -->
  <g transform="translate(826,435)" filter="url(#shadow)">
    <rect width="312" height="168" rx="16" fill="#191A2E" stroke="#2E2F50"/>
    <rect width="6" height="168" rx="3" fill="#2DD4BF"/>
    <rect x="18" y="16" width="52" height="26" rx="13" fill="#2DD4BF"/>
    <text x="44" y="34" font-size="15" font-weight="800" fill="#0B0B16" text-anchor="middle">G5</text>
    <text x="84" y="35" font-size="15" font-weight="600" fill="#5EEAD4" font-family="'SF Mono',ui-monospace,monospace">/wz:verify</text>
    <text x="20" y="72" font-size="18.5" font-weight="700" fill="#F4F5FC">独立验证</text>
    <text x="20" y="98" font-size="12.5" fill="#A7A8C6">测试 35+8 · 视觉回归 10/10</text>
    <text x="20" y="118" font-size="12.5" fill="#A7A8C6">契约对照 · 构建与 cdk synth</text>
    <rect x="18" y="130" width="140" height="26" rx="13" fill="#2DD4BF" fill-opacity="0.16"/>
    <text x="88" y="147" font-size="12" font-weight="700" fill="#7BEFD8" text-anchor="middle">53 测试全绿 ✓</text>
  </g>

  <!-- G6 (double-AI guard) -->
  <g transform="translate(462,435)" filter="url(#shadow)">
    <rect width="312" height="168" rx="16" fill="#191A2E" stroke="#EC4899" stroke-opacity="0.55"/>
    <rect width="6" height="168" rx="3" fill="#2DD4BF"/>
    <rect x="18" y="16" width="52" height="26" rx="13" fill="#2DD4BF"/>
    <text x="44" y="34" font-size="15" font-weight="800" fill="#0B0B16" text-anchor="middle">G6</text>
    <text x="84" y="35" font-size="15" font-weight="600" fill="#5EEAD4" font-family="'SF Mono',ui-monospace,monospace">/wz:review</text>
    <text x="20" y="72" font-size="18.5" font-weight="700" fill="#F4F5FC">审查 + 安全审计</text>
    <text x="20" y="98" font-size="12.5" fill="#A7A8C6">独立 AI 三视角：基础/对抗/回归</text>
    <text x="20" y="118" font-size="12.5" fill="#A7A8C6">抓修 3 个真缺陷（P1/P2）</text>
    <rect x="18" y="130" width="150" height="26" rx="13" fill="#EC4899" fill-opacity="0.2"/>
    <text x="93" y="147" font-size="12" font-weight="700" fill="#F9A8D4" text-anchor="middle">★ 双 AI · 守护</text>
  </g>

  <!-- G7 -->
  <g transform="translate(98,435)" filter="url(#shadow)">
    <rect width="312" height="168" rx="16" fill="#191A2E" stroke="#2E2F50"/>
    <rect width="6" height="168" rx="3" fill="#F5B942"/>
    <rect x="18" y="16" width="52" height="26" rx="13" fill="#F5B942"/>
    <text x="44" y="34" font-size="15" font-weight="800" fill="#3A2A05" text-anchor="middle">G7</text>
    <text x="84" y="35" font-size="15" font-weight="600" fill="#5EEAD4" font-family="'SF Mono',ui-monospace,monospace">/wz:deploy</text>
    <text x="20" y="72" font-size="18.5" font-weight="700" fill="#F4F5FC">部署上线</text>
    <text x="20" y="98" font-size="12.5" fill="#A7A8C6">CDK 真部署 AWS · S3 + CloudFront</text>
    <text x="20" y="118" font-size="12.5" fill="#A7A8C6">冒烟 7/7 通过 · 修复跨域 CORS</text>
    <rect x="18" y="130" width="120" height="26" rx="13" fill="#F5B942" fill-opacity="0.18"/>
    <text x="78" y="147" font-size="12" font-weight="700" fill="#FBD27A" text-anchor="middle">已上线 ●</text>
  </g>

  <!-- dashed risers from dual-AI band up to G4 & G6 -->
  <line x1="618" y1="603" x2="618" y2="636" stroke="#EC4899" stroke-width="2" stroke-dasharray="3 3" stroke-opacity="0.7"/>
  <line x1="1346" y1="603" x2="1346" y2="636" stroke="#EC4899" stroke-width="2" stroke-dasharray="3 3" stroke-opacity="0.7"/>

  <!-- ===== DUAL-AI CORE BAND ===== -->
  <g transform="translate(200,636)">
    <rect width="1200" height="126" rx="18" fill="#1A1330" stroke="url(#aiband)" stroke-width="2" filter="url(#shadow)"/>
    <!-- core tag + shield -->
    <rect x="28" y="18" width="96" height="24" rx="12" fill="#EC4899" fill-opacity="0.18"/>
    <text x="76" y="35" font-size="12" font-weight="700" fill="#F9A8D4" text-anchor="middle">核心机制</text>
    <path d="M52,52 L82,62 V82 Q82,104 52,114 Q22,104 22,82 V62 Z" fill="#2DD4BF" fill-opacity="0.16" stroke="#2DD4BF" stroke-width="1.5"/>
    <path d="M40,82 L49,91 L65,72" fill="none" stroke="#2DD4BF" stroke-width="3" stroke-linecap="round" stroke-linejoin="round"/>
    <text x="110" y="64" font-size="24" font-weight="800" fill="#F6F7FF">双 AI · AI 守护 AI</text>
    <text x="110" y="90" font-size="13" fill="#C2BEE2">Builder 构建实现，独立的第二个 AI 把关——AI 审查 AI，互不污染上下文</text>
    <text x="110" y="110" font-size="11.5" fill="#8E8FBE">作用于 G4 实现（逐变更审查）与 G6 审查（独立三视角），拦截 P0/P1 缺陷</text>

    <!-- mini flow -->
    <g transform="translate(560,40)">
      <rect width="150" height="46" rx="12" fill="#231641" stroke="#8B5CF6" stroke-opacity="0.6"/>
      <text x="75" y="21" font-size="14" font-weight="700" fill="#C4B5FD" text-anchor="middle">Builder AI</text>
      <text x="75" y="37" font-size="11" fill="#A7A8C6" text-anchor="middle">构建 + 自审</text>
    </g>
    <text x="725" y="58" font-size="10.5" fill="#8E8FBE" text-anchor="middle">diff</text>
    <line x1="710" y1="63" x2="752" y2="63" stroke="#7A7BB4" stroke-width="2.5" marker-end="url(#arr)"/>
    <g transform="translate(756,40)">
      <rect width="196" height="46" rx="12" fill="#10231C" stroke="#2DD4BF" stroke-opacity="0.7"/>
      <text x="98" y="21" font-size="14" font-weight="700" fill="#7BEFD8" text-anchor="middle">Reviewer AI · 守护</text>
      <text x="98" y="37" font-size="11" fill="#9FE6D6" text-anchor="middle">独立上下文 · 第二意见</text>
    </g>
    <text x="972" y="58" font-size="10.5" fill="#8E8FBE" text-anchor="middle">findings</text>
    <line x1="956" y1="63" x2="998" y2="63" stroke="#7A7BB4" stroke-width="2.5" marker-end="url(#arr)"/>
    <g transform="translate(1002,40)">
      <rect width="170" height="46" rx="12" fill="#2A1530" stroke="#EC4899" stroke-opacity="0.6"/>
      <text x="85" y="21" font-size="14" font-weight="700" fill="#F9A8D4" text-anchor="middle">拦截 P0 / P1</text>
      <text x="85" y="37" font-size="11" fill="#A7A8C6" text-anchor="middle">定向修复 ≤ 2 轮</text>
    </g>
  </g>

  <!-- G7 -> delivery -->
  <line x1="150" y1="603" x2="150" y2="790" stroke="#7A7BB4" stroke-width="2.5" marker-end="url(#arr)"/>

  <!-- ===== Delivery ribbon ===== -->
  <rect x="98" y="792" width="1404" height="84" rx="16" fill="#13142A" stroke="#2E2F50"/>
  <text x="210" y="826" font-size="16" font-weight="700" fill="#F4F5FC" text-anchor="middle">交付与持续集成闭环</text>
  <text x="210" y="850" font-size="11.5" fill="#A7A8C6" text-anchor="middle">代码 → 仓库 → 门禁 → 反哺</text>
  <g transform="translate(560,810)">
    <rect width="170" height="48" rx="12" fill="#191A2E" stroke="#3A3B63"/>
    <text x="85" y="22" font-size="13.5" font-weight="700" fill="#E7E8FA" text-anchor="middle">GitHub 私有库</text>
    <text x="85" y="38" font-size="11" fill="#A7A8C6" text-anchor="middle">源码 + 规格 + 证据</text>
  </g>
  <line x1="742" y1="834" x2="770" y2="834" stroke="#7A7BB4" stroke-width="2.5" marker-end="url(#arr)"/>
  <g transform="translate(780,810)">
    <rect width="170" height="48" rx="12" fill="#10231C" stroke="#2DD4BF" stroke-opacity="0.45"/>
    <text x="85" y="22" font-size="13.5" font-weight="700" fill="#7BEFD8" text-anchor="middle">CI 门禁 · 全绿 ✓</text>
    <text x="85" y="38" font-size="11" fill="#9FE6D6" text-anchor="middle">test · build · synth</text>
  </g>
  <line x1="962" y1="834" x2="990" y2="834" stroke="#7A7BB4" stroke-width="2.5" marker-end="url(#arr)"/>
  <g transform="translate(1000,810)">
    <rect width="220" height="48" rx="12" fill="#1C152E" stroke="#8B5CF6" stroke-opacity="0.5"/>
    <text x="110" y="22" font-size="13.5" font-weight="700" fill="#C4B5FD" text-anchor="middle">↺ 经验反哺工作流</text>
    <text x="110" y="38" font-size="11" fill="#B6A7E6" text-anchor="middle">lessons → 模板（build入G5·默认CORS）</text>
  </g>

  <!-- ===== Footer stats ===== -->
  <rect x="98" y="902" width="1404" height="58" rx="14" fill="#191A2E" stroke="#2E2F50"/>
  <text x="168" y="936" font-size="20" font-weight="800" fill="#C4B5FD" text-anchor="middle">8</text>
  <text x="168" y="951" font-size="11.5" fill="#A7A8C6" text-anchor="middle">Gates</text>
  <line x1="242" y1="918" x2="242" y2="944" stroke="#2E2F50"/>
  <text x="326" y="936" font-size="20" font-weight="800" fill="#C4B5FD" text-anchor="middle">6</text>
  <text x="326" y="951" font-size="11.5" fill="#A7A8C6" text-anchor="middle">Features</text>
  <line x1="412" y1="918" x2="412" y2="944" stroke="#2E2F50"/>
  <text x="496" y="936" font-size="20" font-weight="800" fill="#C4B5FD" text-anchor="middle">36</text>
  <text x="496" y="951" font-size="11.5" fill="#A7A8C6" text-anchor="middle">Tasks</text>
  <line x1="582" y1="918" x2="582" y2="944" stroke="#2E2F50"/>
  <text x="686" y="936" font-size="20" font-weight="800" fill="#7BEFD8" text-anchor="middle">53</text>
  <text x="686" y="951" font-size="11.5" fill="#A7A8C6" text-anchor="middle">Tests 全绿</text>
  <line x1="796" y1="918" x2="796" y2="944" stroke="#2E2F50"/>
  <text x="980" y="930" font-size="15" font-weight="700" fill="#FBD27A" text-anchor="middle">真部署上线 AWS（Lambda · DynamoDB · S3 · CloudFront）</text>
  <text x="980" y="949" font-size="11.5" fill="#A7A8C6" text-anchor="middle">us-east-2 · preview 环境 · 冒烟通过</text>
  <line x1="1216" y1="918" x2="1216" y2="944" stroke="#2E2F50"/>
  <text x="1370" y="930" font-size="15" font-weight="700" fill="#9FE6D6" text-anchor="middle">GitHub + CI 门禁</text>
  <text x="1370" y="949" font-size="11.5" fill="#A7A8C6" text-anchor="middle">私有库 · 全流程绿</text>
</svg>
